<svg xmlns="http://www.w3.org/2000/svg" viewBox="0 0 408 395"><path fill="#fff" d="M237.5-79.5c198.936 0 237 38.064 237 237s-38.064 237-237 237-237-38.064-237-237 38.064-237 237-237m0 1c-198.384 0-236 37.616-236 236s37.616 236 236 236 236-37.616 236-236-37.616-236-236-236m-30.281 116h53.976l-64.822 156.565h75.226l-34.533-82.959 40.39-34.356 84.29 204.75h-53.63l-18.214-43.036H178.449L159.882 281.5h-53.63zm52.479 1h-51.812l-100.138 242h51.475l18.569-43.035h112.773l18.213 43.035h51.475L277.055 78.404l-38.786 32.99 34.83 83.671h-78.222z" opacity=".167"/></svg>