<svg xmlns="http://www.w3.org/2000/svg" viewBox="0 0 211 230"><path fill="#fff" d="M-126-52C-51.94-52 11.498-6.514 37.898 58.046 133.851 60.114 211 138.547 211 235c0 97.754-79.246 177-177 177-74.06 0-137.498-45.486-163.898-110.046C-225.851 299.886-303 221.453-303 125c0-97.754 79.246-177 177-177M38.306 59.052l.857 2.174C46.808 81.012 51 102.516 51 125c0 97.754-79.246 177-177 177l-2.807-.02C-102.456 365.96-39.487 411 34 411c97.202 0 176-78.798 176-176 0-95.763-76.481-173.662-171.694-175.948M34 59c-97.202 0-176 78.798-176 176 0 23.328 4.538 45.595 12.78 65.968q1.606.033 3.22.032c97.202 0 176-78.798 176-176 0-23.328-4.538-45.595-12.78-65.968Q35.613 59 34 59M-126-51c-97.202 0-176 78.798-176 176 0 95.763 76.481 173.662 171.694 175.948C-138.495 280.563-143 258.308-143 235c0-97.754 79.246-177 177-177l2.807.02C10.456-5.96-52.513-51-126-51" opacity=".15"/></svg>