<svg xmlns="http://www.w3.org/2000/svg" viewBox="0 0 24 22"><g fill="none" fill-rule="evenodd"><circle cx="11" cy="11" r="11" fill="#5fac05"/><path fill="#fff" fill-rule="nonzero" d="M9.97 17.658q.609-.054 1.986-1.393c1.377-1.339 2.014-2.138 3.29-3.738l6.005-7.545.107-.128q1.03-1.287.92-2.54l-.03-.353q-.056-.63-.228-.885c-.172-.255-.291-.245-.527-.224q-.471.042-1.106.539c-.635.497-.897.808-1.417 1.429l-6.207 7.325q-.558.653-.966 1.04c-.408.386-.462.39-.569.4q-.385.033-.661-.536t-.578-2.041l-.06-.33Q9.554 6.76 8.495 6.853q-1.113.098-1.951 1.115-.84 1.017-.742 2.119.177 2.022.537 3.738.36 1.714.643 2.23.335.617 1.34 1.139c1.004.522 1.219.502 1.647.465"/></g></svg>