<svg xmlns="http://www.w3.org/2000/svg" viewBox="0 0 20 18"><path fill="#0d6efd" d="M10 14.5q1.875 0 3.188-1.312C14.5 11.875 14.5 11.25 14.5 10s-.437-2.312-1.312-3.187S11.25 5.5 10 5.5s-2.312.438-3.187 1.313S5.5 8.75 5.5 10s.438 2.313 1.313 3.188S8.75 14.5 10 14.5m0-2q-1.05 0-1.775-.725C7.5 11.05 7.5 10.7 7.5 10s.242-1.292.725-1.775S9.3 7.5 10 7.5s1.292.242 1.775.725S12.5 9.3 12.5 10s-.242 1.292-.725 1.775S10.7 12.5 10 12.5M2 18q-.824 0-1.412-.587C0 16.826 0 16.55 0 16V4q0-.824.587-1.412C1.174 1.999 1.45 2 2 2h3.15L7 0h6l1.85 2H18q.824 0 1.413.588C20.002 3.175 20 3.45 20 4v12q0 .824-.587 1.413c-.587.589-.863.587-1.413.587z"/></svg>