<svg xmlns="http://www.w3.org/2000/svg" viewBox="0 0 20 20"><path fill="#0d6efd" d="M12.417 12q1.7 0 2.887-1.175A4.32 4.32 0 0 0 16.617 8q-1.701 0-2.913 1.175T12.417 12m0 0q-.076-1.65-1.288-2.825T8.217 8q.124 1.65 1.312 2.825T12.417 12m0-3q.424 0 .712-.287A.97.97 0 0 0 13.417 8v-.25l.25.1q.375.15.762.075a.83.83 0 0 0 .588-.425q.225-.375.15-.8c-.075-.425-.217-.483-.5-.6l-.25-.1.25-.1q.425-.175.487-.612a1.2 1.2 0 0 0-.137-.788q-.225-.375-.6-.437c-.375-.062-.5-.013-.75.087l-.25.1V4a.97.97 0 0 0-.288-.712.97.97 0 0 0-.712-.288.97.97 0 0 0-.713.288.97.97 0 0 0-.287.712v.25l-.25-.1q-.375-.15-.75-.087c-.375.063-.45.187-.6.437q-.201.35-.138.788.063.437.488.612l.25.1-.25.1q-.425.176-.5.6c-.075.424 0 .55.15.8q.2.35.587.425.388.075.763-.075l.25-.1V8q0 .424.287.713.288.287.713.287m0-2a.97.97 0 0 1-.713-.287q-.287-.288-.287-.713c0-.425.096-.52.287-.712A.97.97 0 0 1 12.417 5q.424 0 .712.288.288.287.288.712c0 .425-.096.52-.288.713a.97.97 0 0 1-.712.287M3.592 19.875a1.88 1.88 0 0 1-1.488-.387 1.92 1.92 0 0 1-.762-1.338L.017 7.225a1.95 1.95 0 0 1 .4-1.475A1.9 1.9 0 0 1 1.742 5l1.15-.15V13q0 1.65 1.175 2.825T6.892 17h9.3q-.15.6-.6 1.038c-.45.438-.667.462-1.1.512zM6.892 15q-.825 0-1.413-.587A1.93 1.93 0 0 1 4.892 13V2q0-.824.587-1.412A1.93 1.93 0 0 1 6.892 0h11q.825 0 1.412.587.588.588.588 1.413v11q0 .824-.588 1.413a1.93 1.93 0 0 1-1.412.587z"/></svg>