<svg xmlns="http://www.w3.org/2000/svg" viewBox="0 0 18 21"><path fill="#0d6efd" d="M7.8 21a2.94 2.94 0 0 1-2.35-1.15L0 12.925l.475-.5q.5-.525 1.2-.625c.7-.1.9.025 1.3.275l1.85 1.125V5q0-.424.288-.713C5.4 3.998 5.542 4 5.825 4s.525.096.725.287.3.43.3.713v5h7.475q1.25 0 2.125.875c.875.875.875 1.292.875 2.125v4q0 1.65-1.175 2.825C14.975 21 14.425 21 13.325 21zM1.5 7.5q-.325-.55-.5-1.187C.825 5.676.825 5.45.825 5q0-2.075 1.463-3.537C3.75 0 4.442 0 5.825 0s2.563.488 3.538 1.463S10.825 3.617 10.825 5a4.93 4.93 0 0 1-.675 2.5l-1.725-1q.2-.35.3-.712c.1-.363.1-.505.1-.788q0-1.25-.875-2.125C7.075 2 6.658 2 5.825 2s-1.542.292-2.125.875S2.825 4.167 2.825 5q0 .425.1.788c.1.362.167.479.3.712z"/></svg>