<svg xmlns="http://www.w3.org/2000/svg" viewBox="0 0 90 23"><path fill="#fff" d="m5.867 4.687.056 3.783h.112c.785-2.138 2.749-3.892 5.61-3.892 3.703 0 4.825 1.809 4.825 5.262v6.798c0 2.083.112 4.22.617 5.81h-6.003c.505-1.534.561-3.398.561-5.646v-6.468c0-1.59-.617-2.303-2.412-2.303-1.347 0-2.357.384-3.142 1.042v7.784c0 2.248.056 4.112.561 5.647H.705c.561-1.59.617-3.783.617-5.811v-6.36c0-1.699-.617-3.234-1.346-4.001zm20.998 14.29v-6.251c-.361.539-.774.862-1.96 1.4-1.547.81-2.114 1.672-2.114 3.45 0 1.509.825 2.479 2.063 2.479 1.237.054 1.65-.431 2.01-1.078m-1.506-14.4c4.53 0 6.243 1.782 6.243 5.4v7.56c0 1.349.552 1.78 1.657 1.78.166 0 .773-.107.94-.27-.111.54-.167.81-.277 1.08-.553 1.513-1.492 2.377-3.37 2.377-2.265 0-3.37-1.566-3.425-3.132h-.055c-.773 2.214-2.21 3.132-4.53 3.132-2.817 0-4.64-1.674-4.64-4.266 0-2.754 2.54-3.942 5.193-4.913 2.54-.972 3.866-1.674 3.866-3.456v-.378c0-1.944-.607-2.916-2.485-2.916-1.16 0-1.602.54-1.823 1.62-.387 1.674-1.05 2.268-2.155 2.268-.994 0-1.933-.648-1.933-1.89-.11-2.376 3.314-3.995 6.794-3.995m18.989 15.617c-.61 1.375-2.105 2.31-4.209 2.31-3.6 0-5.04-1.815-5.04-5.115V7.049h-1.716v-.11L39.641.504l.11.055v4.07h4.541l-.443 2.475h-4.042v9.57c0 1.815.775 2.585 2.436 2.585 1.274 0 1.939-.165 2.548-.495-.166.605-.222.935-.443 1.43M51.02 4.578v12.06c0 1.809.703 2.796 2.436 2.796 1.462 0 2.544-.494 3.194-1.316V9.95c0-1.81-.162-3.29-.758-4.824l5.306-.548v12.334c0 2.74.27 3.947.704 5.263h-5.198v-3.509h-.054c-.758 2.248-2.165 3.838-5.143 3.838-3.736 0-5.144-2.303-5.144-5.702V9.95c0-1.81-.162-3.29-.757-4.824zm17.628 4.509c.783-3.245 2.294-4.51 4.308-4.51 1.846 0 2.798.935 2.798 2.42 0 1.32-.784 2.42-2.183 2.42-.839 0-1.342-.385-1.678-.715-.392-.385-.672-.77-1.12-.77-.95 0-2.013 1.594-2.013 4.234v4.399c0 2.144.167 4.289.615 5.939h-5.931c.56-1.595.615-3.795.615-5.83v-6.323c0-1.704-.615-3.244-1.342-4.014l5.819-1.65.056.056v4.399zm11.18 2.01 5.703-.538c-.053-2.74-.48-4.352-2.345-4.352-1.919.054-3.038 1.612-3.358 4.89m3.145 11.407c-4.421 0-8.034-3.03-8.034-8.866 0-5.891 3.45-9.875 8.142-9.875 4.422 0 6.525 2.918 6.525 8.472H79.522v.561c0 4.433 2.211 6.229 5.23 6.229 2.75 0 3.937-1.122 4.746-1.964l.108.28c-.755 2.694-2.804 5.163-6.633 5.163"/></svg>