<svg xmlns="http://www.w3.org/2000/svg" viewBox="0 0 95 17"><path fill="#fbbe25" d="m14.212 17.074-2.431-6.341 5.015-3.774h-5.95L8.5.669l-2.363 6.29H.204l5.015 3.774-2.414 6.341L8.5 12.79zm19.55 0-2.431-6.341 5.015-3.774h-5.95L28.05.669l-2.363 6.29h-5.933l5.015 3.774-2.414 6.341 5.695-4.284zm19.55 0-2.431-6.341 5.015-3.774h-5.95L47.6.669l-2.363 6.29h-5.933l5.015 3.774-2.414 6.341L47.6 12.79zm19.55 0-2.431-6.341 5.015-3.774h-5.95L67.15.669l-2.363 6.29h-5.933l5.015 3.774-2.414 6.341 5.695-4.284zm19.55 0-2.431-6.341 5.015-3.774h-5.95L86.7.669l-2.363 6.29h-5.933l5.015 3.774-2.414 6.341L86.7 12.79z"/></svg>